<?xml version="1.0" ?><!DOCTYPE svg  PUBLIC '-//W3C//DTD SVG 1.1//EN'  'http://www.w3.org/Graphics/SVG/1.1/DTD/svg11.dtd'><svg height="43.3492mm" style="shape-rendering:geometricPrecision; text-rendering:geometricPrecision; image-rendering:optimizeQuality; fill-rule:evenodd; clip-rule:evenodd" version="1.1" viewBox="0 0 4335 4335" width="43.3492mm" xml:space="preserve" xmlns="http://www.w3.org/2000/svg" xmlns:xlink="http://www.w3.org/1999/xlink"><defs><style type="text/css">
   <![CDATA[
    .fil0 {fill:#2B2A29}
   ]]>
  </style></defs><g id="Слой_x0020_1"><path class="fil0" d="M2167 71c23,-1 66,16 132,113 109,160 241,350 241,635 0,284 0,700 0,700l463 268 0 -327c0,-36 29,-65 64,-65l310 0c35,0 64,29 64,65l0 580 566 326c0,0 160,66 160,190 0,124 0,124 0,124 0,0 -29,102 -95,102 -65,0 -1547,-212 -1547,-212 0,0 7,613 -14,694 -22,80 -22,80 -22,80l525 416c0,0 139,124 161,190 22,66 7,109 -73,109 -81,0 -723,-73 -723,-73 0,0 -18,23 -73,76l0 137c0,36 -29,65 -64,65l-149 0c-35,0 -64,-29 -64,-65l0 -137c-55,-53 -73,-76 -73,-76 0,0 -642,73 -723,73 -80,0 -95,-43 -73,-109 22,-66 161,-190 161,-190l525 -416c0,0 0,0 -22,-80 -21,-81 -14,-694 -14,-694 0,0 -1482,212 -1547,212 -66,0 -95,-102 -95,-102 0,0 0,0 0,-124 0,-124 160,-190 160,-190l566 -326 0 -580c0,-36 29,-65 64,-65l309 0c36,0 65,29 65,65l0 327 463 -268c0,0 0,-416 0,-700 0,-285 132,-475 241,-635 66,-97 108,-114 131,-113z"/></g></svg>